<svg xmlns="http://www.w3.org/2000/svg" viewBox="0 0 512 512">
  <defs>
    <linearGradient id="bg" x1="0%" y1="0%" x2="100%" y2="100%">
      <stop offset="0%" style="stop-color:#6366f1"/>
      <stop offset="50%" style="stop-color:#8b5cf6"/>
      <stop offset="100%" style="stop-color:#a855f7"/>
    </linearGradient>
  </defs>
  <!-- Background -->
  <rect width="512" height="512" rx="96" fill="url(#bg)"/>
  <!-- Film reel circle -->
  <circle cx="256" cy="240" r="130" fill="none" stroke="white" stroke-width="22" opacity="0.9"/>
  <!-- Reel center hole -->
  <circle cx="256" cy="240" r="32" fill="white" opacity="0.3"/>
  <!-- Reel spokes -->
  <line x1="256" y1="110" x2="256" y2="172" stroke="white" stroke-width="12" stroke-linecap="round" opacity="0.4"/>
  <line x1="143" y1="175" x2="192" y2="207" stroke="white" stroke-width="12" stroke-linecap="round" opacity="0.4"/>
  <line x1="369" y1="175" x2="320" y2="207" stroke="white" stroke-width="12" stroke-linecap="round" opacity="0.4"/>
  <line x1="143" y1="305" x2="192" y2="273" stroke="white" stroke-width="12" stroke-linecap="round" opacity="0.4"/>
  <line x1="369" y1="305" x2="320" y2="273" stroke="white" stroke-width="12" stroke-linecap="round" opacity="0.4"/>
  <line x1="256" y1="370" x2="256" y2="308" stroke="white" stroke-width="12" stroke-linecap="round" opacity="0.4"/>
  <!-- Sound waves (bottom right) -->
  <path d="M320 390 C340 370 340 360 320 340" fill="none" stroke="white" stroke-width="16" stroke-linecap="round" opacity="0.85"/>
  <path d="M350 400 C380 370 380 355 350 325" fill="none" stroke="white" stroke-width="16" stroke-linecap="round" opacity="0.6"/>
  <path d="M380 410 C420 370 420 350 380 310" fill="none" stroke="white" stroke-width="16" stroke-linecap="round" opacity="0.35"/>
</svg>
